<mxfile host="app.diagrams.net" agent="Mozilla/5.0 (Windows NT 10.0; Win64; x64; rv:134.0) Gecko/20100101 Firefox/134.0" version="26.0.5">
  <diagram name="Page-1" id="6cr39SW3jRt1n0tYTJxC">
    <mxGraphModel dx="2910" dy="1091" grid="1" gridSize="10" guides="1" tooltips="1" connect="1" arrows="1" fold="1" page="1" pageScale="1" pageWidth="850" pageHeight="1100" math="0" shadow="0">
      <root>
        <mxCell id="0" />
        <mxCell id="1" parent="0" />
        <mxCell id="sve3NwIvAjOAGFKg7BTq-1" value="" style="rounded=0;whiteSpace=wrap;html=1;" vertex="1" parent="1">
          <mxGeometry width="990" height="820" as="geometry" />
        </mxCell>
        <mxCell id="sve3NwIvAjOAGFKg7BTq-2" value="&lt;font style=&quot;font-size: 21px;&quot;&gt;&lt;b&gt;Operations Reports&lt;br&gt;&lt;/b&gt;&lt;/font&gt;" style="text;strokeColor=none;align=center;fillColor=none;html=1;verticalAlign=middle;whiteSpace=wrap;rounded=0;" vertex="1" parent="1">
          <mxGeometry x="20" y="13" width="200" height="30" as="geometry" />
        </mxCell>
        <mxCell id="sve3NwIvAjOAGFKg7BTq-3" value="&lt;b&gt;Gate Utilization&lt;br&gt;&lt;/b&gt;" style="text;strokeColor=none;align=center;fillColor=none;html=1;verticalAlign=middle;whiteSpace=wrap;rounded=0;" vertex="1" parent="1">
          <mxGeometry x="90" y="98.25" width="130" height="30" as="geometry" />
        </mxCell>
        <mxCell id="sve3NwIvAjOAGFKg7BTq-4" value="&lt;b&gt;Average Turnaround&lt;br&gt;&lt;/b&gt;" style="text;strokeColor=none;align=center;fillColor=none;html=1;verticalAlign=middle;whiteSpace=wrap;rounded=0;" vertex="1" parent="1">
          <mxGeometry x="490" y="98.25" width="140" height="30" as="geometry" />
        </mxCell>
        <mxCell id="sve3NwIvAjOAGFKg7BTq-5" value="&lt;b&gt;On-Time Performance&lt;br&gt;&lt;/b&gt;" style="text;strokeColor=none;align=center;fillColor=none;html=1;verticalAlign=middle;whiteSpace=wrap;rounded=0;" vertex="1" parent="1">
          <mxGeometry x="290" y="98.25" width="130" height="30" as="geometry" />
        </mxCell>
        <mxCell id="sve3NwIvAjOAGFKg7BTq-6" value="&lt;b&gt;Total Operations&lt;br&gt;&lt;/b&gt;" style="text;strokeColor=none;align=center;fillColor=none;html=1;verticalAlign=middle;whiteSpace=wrap;rounded=0;" vertex="1" parent="1">
          <mxGeometry x="716" y="98.25" width="110" height="30" as="geometry" />
        </mxCell>
        <mxCell id="sve3NwIvAjOAGFKg7BTq-7" value="&lt;font style=&quot;font-size: 18px;&quot;&gt;&lt;b&gt;87%&lt;/b&gt;&lt;/font&gt;" style="text;strokeColor=none;align=center;fillColor=none;html=1;verticalAlign=middle;whiteSpace=wrap;rounded=0;" vertex="1" parent="1">
          <mxGeometry x="120" y="136.5" width="60" height="30" as="geometry" />
        </mxCell>
        <mxCell id="sve3NwIvAjOAGFKg7BTq-8" value="&lt;font style=&quot;font-size: 18px;&quot;&gt;&lt;b&gt;92%&lt;/b&gt;&lt;/font&gt;" style="text;strokeColor=none;align=center;fillColor=none;html=1;verticalAlign=middle;whiteSpace=wrap;rounded=0;" vertex="1" parent="1">
          <mxGeometry x="315" y="139" width="60" height="30" as="geometry" />
        </mxCell>
        <mxCell id="sve3NwIvAjOAGFKg7BTq-9" value="&lt;font style=&quot;font-size: 18px;&quot;&gt;&lt;b&gt;45m&lt;/b&gt;&lt;/font&gt;" style="text;strokeColor=none;align=center;fillColor=none;html=1;verticalAlign=middle;whiteSpace=wrap;rounded=0;" vertex="1" parent="1">
          <mxGeometry x="509.5" y="136.5" width="81" height="33.5" as="geometry" />
        </mxCell>
        <mxCell id="sve3NwIvAjOAGFKg7BTq-10" value="&lt;font style=&quot;font-size: 18px;&quot;&gt;&lt;b&gt;86&lt;/b&gt;&lt;/font&gt;" style="text;strokeColor=none;align=center;fillColor=none;html=1;verticalAlign=middle;whiteSpace=wrap;rounded=0;" vertex="1" parent="1">
          <mxGeometry x="729" y="136.5" width="84" height="30" as="geometry" />
        </mxCell>
        <mxCell id="sve3NwIvAjOAGFKg7BTq-16" value="Today" style="rounded=1;fillColor=#F1F2F4;strokeColor=none;html=1;whiteSpace=wrap;fontColor=#596780;align=left;fontSize=12;spacingLeft=10;sketch=0;" vertex="1" parent="1">
          <mxGeometry x="630" y="10" width="140" height="33" as="geometry" />
        </mxCell>
        <mxCell id="sve3NwIvAjOAGFKg7BTq-17" value="" style="shape=triangle;direction=south;fillColor=#596780;strokeColor=none;html=1;sketch=0;" vertex="1" parent="sve3NwIvAjOAGFKg7BTq-16">
          <mxGeometry x="1" y="0.5" width="12" height="6" relative="1" as="geometry">
            <mxPoint x="-20" y="-3" as="offset" />
          </mxGeometry>
        </mxCell>
        <mxCell id="sve3NwIvAjOAGFKg7BTq-20" value="&lt;b style=&quot;color: rgb(50, 163, 69);&quot;&gt;5% from yesterday&lt;/b&gt;" style="text;strokeColor=none;align=center;fillColor=none;html=1;verticalAlign=middle;whiteSpace=wrap;rounded=0;" vertex="1" parent="1">
          <mxGeometry x="280" y="176.5" width="130" height="30" as="geometry" />
        </mxCell>
        <mxCell id="sve3NwIvAjOAGFKg7BTq-25" value="&lt;b style=&quot;color: rgb(50, 163, 69);&quot;&gt;3% from yesterday&lt;/b&gt;" style="text;strokeColor=none;align=center;fillColor=none;html=1;verticalAlign=middle;whiteSpace=wrap;rounded=0;" vertex="1" parent="1">
          <mxGeometry x="95" y="176.5" width="130" height="30" as="geometry" />
        </mxCell>
        <mxCell id="sve3NwIvAjOAGFKg7BTq-26" value="&lt;span style=&quot;color: rgb(255, 128, 0);&quot;&gt;- &lt;b&gt;same as yesterday&lt;/b&gt;&lt;/span&gt;" style="text;strokeColor=none;align=center;fillColor=none;html=1;verticalAlign=middle;whiteSpace=wrap;rounded=0;" vertex="1" parent="1">
          <mxGeometry x="480" y="176.5" width="130" height="30" as="geometry" />
        </mxCell>
        <mxCell id="sve3NwIvAjOAGFKg7BTq-27" value="&lt;span style=&quot;color: rgb(50, 163, 69);&quot;&gt;&lt;b&gt;4 from yesterday&lt;br&gt;&lt;/b&gt;&lt;/span&gt;" style="text;strokeColor=none;align=center;fillColor=none;html=1;verticalAlign=middle;whiteSpace=wrap;rounded=0;" vertex="1" parent="1">
          <mxGeometry x="706" y="176.5" width="130" height="30" as="geometry" />
        </mxCell>
        <mxCell id="sve3NwIvAjOAGFKg7BTq-28" value="" style="shape=image;verticalLabelPosition=bottom;labelBackgroundColor=default;verticalAlign=top;aspect=fixed;imageAspect=0;image=data:image/png,iVBORw0KGgoAAAANSUhEUgAAABAAAAAQCAYAAAAf8/9hAAAABHNCSVQICAgIfAhkiAAAAAlwSFlzAAAAdgAAAHYBTnsmCAAAABl0RVh0U29mdHdhcmUAd3d3Lmlua3NjYXBlLm9yZ5vuPBoAAAHWSURBVDiNnZOxS1tRFMZ/95rGl0VNAh1chHYpKCWCXQNtbShk0SV/QO1QJJvOwnMWnIIO4h+QycU2XlMwk05t2loLgoWWYBZbfQRqXtK80yF5yUtqoe033XvO932cc/muYhB7TAELKJ4AEygE4SvCPsIWT/kYpKvuKU+YKOsILwDtly1tUffq/rUFbHDFEhkadIl5wozxCmExKC7NlKgkK8RCMb80BGQZ4yV5wj2DKOvAo+BouXs5ktEk8VtxDh4cYGkr2H7MKGvtFfaYQlHuuANg37VZubPS9zTmm2GuPMe1d91bR3Nfo3j+J7HruQA0vAapeIqdxA4RHemt47EAhmMMgkHsM1t82Ge2OE1HRESyn7JSb9VFRKRwUZDh4rB0NO/BUMMg46XxPjGGrkHiMCHpN+muSeZdxjdwQoAHUHWrrH5epepW2axsMojdi13Sb9PM356n+L3ol0VhOAYmf1MAzkOHkdAI00fTlGvlmygfNML+TZ2/hNEIW7QT9q9oodnWnWxv/IdBjllO2km8Ygl4Pcg4/XFK7WeNc/e8vyEUibEMg59plDUUi3SCFdERrCGLy+Zlb2zIEWOZGZr9Bj4KTKJ5BqRQTCAI8AUwaLaZ5SRI/wV+AtOwvky/3gAAAABJRU5ErkJggg==;" vertex="1" parent="1">
          <mxGeometry x="90" y="183.5" width="16" height="16" as="geometry" />
        </mxCell>
        <mxCell id="sve3NwIvAjOAGFKg7BTq-29" value="" style="shape=image;verticalLabelPosition=bottom;labelBackgroundColor=default;verticalAlign=top;aspect=fixed;imageAspect=0;image=data:image/png,iVBORw0KGgoAAAANSUhEUgAAABAAAAAQCAYAAAAf8/9hAAAABHNCSVQICAgIfAhkiAAAAAlwSFlzAAAAdgAAAHYBTnsmCAAAABl0RVh0U29mdHdhcmUAd3d3Lmlua3NjYXBlLm9yZ5vuPBoAAAHWSURBVDiNnZOxS1tRFMZ/95rGl0VNAh1chHYpKCWCXQNtbShk0SV/QO1QJJvOwnMWnIIO4h+QycU2XlMwk05t2loLgoWWYBZbfQRqXtK80yF5yUtqoe033XvO932cc/muYhB7TAELKJ4AEygE4SvCPsIWT/kYpKvuKU+YKOsILwDtly1tUffq/rUFbHDFEhkadIl5wozxCmExKC7NlKgkK8RCMb80BGQZ4yV5wj2DKOvAo+BouXs5ktEk8VtxDh4cYGkr2H7MKGvtFfaYQlHuuANg37VZubPS9zTmm2GuPMe1d91bR3Nfo3j+J7HruQA0vAapeIqdxA4RHemt47EAhmMMgkHsM1t82Ge2OE1HRESyn7JSb9VFRKRwUZDh4rB0NO/BUMMg46XxPjGGrkHiMCHpN+muSeZdxjdwQoAHUHWrrH5epepW2axsMojdi13Sb9PM356n+L3ol0VhOAYmf1MAzkOHkdAI00fTlGvlmygfNML+TZ2/hNEIW7QT9q9oodnWnWxv/IdBjllO2km8Ygl4Pcg4/XFK7WeNc/e8vyEUibEMg59plDUUi3SCFdERrCGLy+Zlb2zIEWOZGZr9Bj4KTKJ5BqRQTCAI8AUwaLaZ5SRI/wV+AtOwvky/3gAAAABJRU5ErkJggg==;" vertex="1" parent="1">
          <mxGeometry x="274" y="183.5" width="16" height="16" as="geometry" />
        </mxCell>
        <mxCell id="sve3NwIvAjOAGFKg7BTq-30" value="" style="shape=image;verticalLabelPosition=bottom;labelBackgroundColor=default;verticalAlign=top;aspect=fixed;imageAspect=0;image=data:image/png,iVBORw0KGgoAAAANSUhEUgAAABAAAAAQCAYAAAAf8/9hAAAABHNCSVQICAgIfAhkiAAAAAlwSFlzAAAAdgAAAHYBTnsmCAAAABl0RVh0U29mdHdhcmUAd3d3Lmlua3NjYXBlLm9yZ5vuPBoAAAHWSURBVDiNnZOxS1tRFMZ/95rGl0VNAh1chHYpKCWCXQNtbShk0SV/QO1QJJvOwnMWnIIO4h+QycU2XlMwk05t2loLgoWWYBZbfQRqXtK80yF5yUtqoe033XvO932cc/muYhB7TAELKJ4AEygE4SvCPsIWT/kYpKvuKU+YKOsILwDtly1tUffq/rUFbHDFEhkadIl5wozxCmExKC7NlKgkK8RCMb80BGQZ4yV5wj2DKOvAo+BouXs5ktEk8VtxDh4cYGkr2H7MKGvtFfaYQlHuuANg37VZubPS9zTmm2GuPMe1d91bR3Nfo3j+J7HruQA0vAapeIqdxA4RHemt47EAhmMMgkHsM1t82Ge2OE1HRESyn7JSb9VFRKRwUZDh4rB0NO/BUMMg46XxPjGGrkHiMCHpN+muSeZdxjdwQoAHUHWrrH5epepW2axsMojdi13Sb9PM356n+L3ol0VhOAYmf1MAzkOHkdAI00fTlGvlmygfNML+TZ2/hNEIW7QT9q9oodnWnWxv/IdBjllO2km8Ygl4Pcg4/XFK7WeNc/e8vyEUibEMg59plDUUi3SCFdERrCGLy+Zlb2zIEWOZGZr9Bj4KTKJ5BqRQTCAI8AUwaLaZ5SRI/wV+AtOwvky/3gAAAABJRU5ErkJggg==;" vertex="1" parent="1">
          <mxGeometry x="706" y="183.5" width="16" height="16" as="geometry" />
        </mxCell>
        <mxCell id="sve3NwIvAjOAGFKg7BTq-31" value="&lt;font style=&quot;font-size: 21px;&quot;&gt;&lt;b&gt;Gate utilization over time&lt;br&gt;&lt;/b&gt;&lt;/font&gt;" style="text;strokeColor=none;align=center;fillColor=none;html=1;verticalAlign=middle;whiteSpace=wrap;rounded=0;" vertex="1" parent="1">
          <mxGeometry x="40" y="240" width="260" height="30" as="geometry" />
        </mxCell>
        <mxCell id="sve3NwIvAjOAGFKg7BTq-32" value="" style="endArrow=none;html=1;rounded=0;" edge="1" parent="1">
          <mxGeometry width="50" height="50" relative="1" as="geometry">
            <mxPoint x="40" y="439.84000000000003" as="sourcePoint" />
            <mxPoint x="40" y="290" as="targetPoint" />
          </mxGeometry>
        </mxCell>
        <mxCell id="sve3NwIvAjOAGFKg7BTq-33" value="" style="endArrow=none;html=1;rounded=0;entryX=0.75;entryY=0;entryDx=0;entryDy=0;" edge="1" parent="1" target="sve3NwIvAjOAGFKg7BTq-39">
          <mxGeometry width="50" height="50" relative="1" as="geometry">
            <mxPoint x="40" y="440" as="sourcePoint" />
            <mxPoint x="220" y="430" as="targetPoint" />
          </mxGeometry>
        </mxCell>
        <mxCell id="sve3NwIvAjOAGFKg7BTq-34" value="0600" style="text;strokeColor=none;align=center;fillColor=none;html=1;verticalAlign=middle;whiteSpace=wrap;rounded=0;" vertex="1" parent="1">
          <mxGeometry x="40" y="440" width="60" height="30" as="geometry" />
        </mxCell>
        <mxCell id="sve3NwIvAjOAGFKg7BTq-35" value="0900" style="text;strokeColor=none;align=center;fillColor=none;html=1;verticalAlign=middle;whiteSpace=wrap;rounded=0;" vertex="1" parent="1">
          <mxGeometry x="100" y="440" width="60" height="30" as="geometry" />
        </mxCell>
        <mxCell id="sve3NwIvAjOAGFKg7BTq-36" value="1200" style="text;strokeColor=none;align=center;fillColor=none;html=1;verticalAlign=middle;whiteSpace=wrap;rounded=0;" vertex="1" parent="1">
          <mxGeometry x="160" y="440" width="60" height="30" as="geometry" />
        </mxCell>
        <mxCell id="sve3NwIvAjOAGFKg7BTq-37" value="1500" style="text;strokeColor=none;align=center;fillColor=none;html=1;verticalAlign=middle;whiteSpace=wrap;rounded=0;" vertex="1" parent="1">
          <mxGeometry x="220" y="440" width="60" height="30" as="geometry" />
        </mxCell>
        <mxCell id="sve3NwIvAjOAGFKg7BTq-39" value="1800" style="text;strokeColor=none;align=center;fillColor=none;html=1;verticalAlign=middle;whiteSpace=wrap;rounded=0;" vertex="1" parent="1">
          <mxGeometry x="290" y="440" width="60" height="30" as="geometry" />
        </mxCell>
        <mxCell id="sve3NwIvAjOAGFKg7BTq-40" value="" style="endArrow=none;html=1;rounded=0;entryX=0.172;entryY=0.464;entryDx=0;entryDy=0;entryPerimeter=0;" edge="1" parent="1">
          <mxGeometry width="50" height="50" relative="1" as="geometry">
            <mxPoint x="509.5" y="439.84000000000003" as="sourcePoint" />
            <mxPoint x="509.77999999999975" y="280.0000000000001" as="targetPoint" />
          </mxGeometry>
        </mxCell>
        <mxCell id="sve3NwIvAjOAGFKg7BTq-41" value="" style="endArrow=none;html=1;rounded=0;entryX=1;entryY=0;entryDx=0;entryDy=0;" edge="1" parent="1" target="sve3NwIvAjOAGFKg7BTq-45">
          <mxGeometry width="50" height="50" relative="1" as="geometry">
            <mxPoint x="509.5" y="440" as="sourcePoint" />
            <mxPoint x="789.5" y="440" as="targetPoint" />
          </mxGeometry>
        </mxCell>
        <mxCell id="sve3NwIvAjOAGFKg7BTq-42" value="0600" style="text;strokeColor=none;align=center;fillColor=none;html=1;verticalAlign=middle;whiteSpace=wrap;rounded=0;" vertex="1" parent="1">
          <mxGeometry x="509.5" y="440" width="60" height="30" as="geometry" />
        </mxCell>
        <mxCell id="sve3NwIvAjOAGFKg7BTq-43" value="0900" style="text;strokeColor=none;align=center;fillColor=none;html=1;verticalAlign=middle;whiteSpace=wrap;rounded=0;" vertex="1" parent="1">
          <mxGeometry x="569.5" y="440" width="60" height="30" as="geometry" />
        </mxCell>
        <mxCell id="sve3NwIvAjOAGFKg7BTq-44" value="1200" style="text;strokeColor=none;align=center;fillColor=none;html=1;verticalAlign=middle;whiteSpace=wrap;rounded=0;" vertex="1" parent="1">
          <mxGeometry x="629.5" y="440" width="60" height="30" as="geometry" />
        </mxCell>
        <mxCell id="sve3NwIvAjOAGFKg7BTq-45" value="1500" style="text;strokeColor=none;align=center;fillColor=none;html=1;verticalAlign=middle;whiteSpace=wrap;rounded=0;" vertex="1" parent="1">
          <mxGeometry x="689.5" y="440" width="60" height="30" as="geometry" />
        </mxCell>
        <mxCell id="sve3NwIvAjOAGFKg7BTq-47" value="" style="endArrow=none;dashed=1;html=1;dashPattern=1 3;strokeWidth=2;rounded=0;entryX=0.071;entryY=0.42;entryDx=0;entryDy=0;entryPerimeter=0;" edge="1" parent="1" target="sve3NwIvAjOAGFKg7BTq-1">
          <mxGeometry width="50" height="50" relative="1" as="geometry">
            <mxPoint x="70" y="440" as="sourcePoint" />
            <mxPoint x="120" y="390" as="targetPoint" />
          </mxGeometry>
        </mxCell>
        <mxCell id="sve3NwIvAjOAGFKg7BTq-49" value="" style="endArrow=none;dashed=1;html=1;dashPattern=1 3;strokeWidth=2;rounded=0;entryX=0.071;entryY=0.42;entryDx=0;entryDy=0;entryPerimeter=0;" edge="1" parent="1" source="sve3NwIvAjOAGFKg7BTq-61">
          <mxGeometry width="50" height="50" relative="1" as="geometry">
            <mxPoint x="129.5" y="440" as="sourcePoint" />
            <mxPoint x="129.5" y="290" as="targetPoint" />
          </mxGeometry>
        </mxCell>
        <mxCell id="sve3NwIvAjOAGFKg7BTq-50" value="" style="endArrow=none;dashed=1;html=1;dashPattern=1 3;strokeWidth=2;rounded=0;entryX=0.071;entryY=0.42;entryDx=0;entryDy=0;entryPerimeter=0;" edge="1" parent="1">
          <mxGeometry width="50" height="50" relative="1" as="geometry">
            <mxPoint x="189.5" y="440" as="sourcePoint" />
            <mxPoint x="189.5" y="290" as="targetPoint" />
          </mxGeometry>
        </mxCell>
        <mxCell id="sve3NwIvAjOAGFKg7BTq-51" value="" style="endArrow=none;dashed=1;html=1;dashPattern=1 3;strokeWidth=2;rounded=0;entryX=0.071;entryY=0.42;entryDx=0;entryDy=0;entryPerimeter=0;" edge="1" parent="1">
          <mxGeometry width="50" height="50" relative="1" as="geometry">
            <mxPoint x="249.5" y="440" as="sourcePoint" />
            <mxPoint x="249.5" y="290" as="targetPoint" />
          </mxGeometry>
        </mxCell>
        <mxCell id="sve3NwIvAjOAGFKg7BTq-52" value="" style="endArrow=none;dashed=1;html=1;dashPattern=1 3;strokeWidth=2;rounded=0;entryX=0.071;entryY=0.42;entryDx=0;entryDy=0;entryPerimeter=0;" edge="1" parent="1">
          <mxGeometry width="50" height="50" relative="1" as="geometry">
            <mxPoint x="319.5" y="440" as="sourcePoint" />
            <mxPoint x="319.5" y="290" as="targetPoint" />
          </mxGeometry>
        </mxCell>
        <mxCell id="sve3NwIvAjOAGFKg7BTq-53" value="" style="endArrow=none;dashed=1;html=1;dashPattern=1 3;strokeWidth=2;rounded=0;" edge="1" parent="1">
          <mxGeometry width="50" height="50" relative="1" as="geometry">
            <mxPoint x="40" y="400" as="sourcePoint" />
            <mxPoint x="320" y="400" as="targetPoint" />
          </mxGeometry>
        </mxCell>
        <mxCell id="sve3NwIvAjOAGFKg7BTq-54" value="" style="endArrow=none;dashed=1;html=1;dashPattern=1 3;strokeWidth=2;rounded=0;" edge="1" parent="1" source="sve3NwIvAjOAGFKg7BTq-67">
          <mxGeometry width="50" height="50" relative="1" as="geometry">
            <mxPoint x="40" y="344.5" as="sourcePoint" />
            <mxPoint x="320" y="344.5" as="targetPoint" />
          </mxGeometry>
        </mxCell>
        <mxCell id="sve3NwIvAjOAGFKg7BTq-55" value="" style="endArrow=none;dashed=1;html=1;dashPattern=1 3;strokeWidth=2;rounded=0;exitX=0.5;exitY=0;exitDx=0;exitDy=0;" edge="1" parent="1" source="sve3NwIvAjOAGFKg7BTq-65">
          <mxGeometry width="50" height="50" relative="1" as="geometry">
            <mxPoint x="40" y="290" as="sourcePoint" />
            <mxPoint x="320" y="290" as="targetPoint" />
          </mxGeometry>
        </mxCell>
        <mxCell id="sve3NwIvAjOAGFKg7BTq-56" value="25" style="text;strokeColor=none;align=center;fillColor=none;html=1;verticalAlign=middle;whiteSpace=wrap;rounded=0;" vertex="1" parent="1">
          <mxGeometry x="-10" y="390" width="60" height="30" as="geometry" />
        </mxCell>
        <mxCell id="sve3NwIvAjOAGFKg7BTq-57" value="50" style="text;strokeColor=none;align=center;fillColor=none;html=1;verticalAlign=middle;whiteSpace=wrap;rounded=0;" vertex="1" parent="1">
          <mxGeometry x="-10" y="330" width="60" height="30" as="geometry" />
        </mxCell>
        <mxCell id="sve3NwIvAjOAGFKg7BTq-58" value="75" style="text;strokeColor=none;align=center;fillColor=none;html=1;verticalAlign=middle;whiteSpace=wrap;rounded=0;" vertex="1" parent="1">
          <mxGeometry x="-10" y="280" width="60" height="30" as="geometry" />
        </mxCell>
        <mxCell id="sve3NwIvAjOAGFKg7BTq-60" value="" style="endArrow=none;dashed=1;html=1;dashPattern=1 3;strokeWidth=2;rounded=0;" edge="1" parent="1" target="sve3NwIvAjOAGFKg7BTq-59">
          <mxGeometry width="50" height="50" relative="1" as="geometry">
            <mxPoint x="40" y="344.5" as="sourcePoint" />
            <mxPoint x="320" y="344.5" as="targetPoint" />
          </mxGeometry>
        </mxCell>
        <mxCell id="sve3NwIvAjOAGFKg7BTq-59" value="" style="ellipse;whiteSpace=wrap;html=1;aspect=fixed;strokeColor=#000000;fillColor=#000000;" vertex="1" parent="1">
          <mxGeometry x="65" y="340" width="10" height="10" as="geometry" />
        </mxCell>
        <mxCell id="sve3NwIvAjOAGFKg7BTq-62" value="" style="endArrow=none;dashed=1;html=1;dashPattern=1 3;strokeWidth=2;rounded=0;entryX=0.071;entryY=0.42;entryDx=0;entryDy=0;entryPerimeter=0;" edge="1" parent="1" target="sve3NwIvAjOAGFKg7BTq-61">
          <mxGeometry width="50" height="50" relative="1" as="geometry">
            <mxPoint x="129.5" y="440" as="sourcePoint" />
            <mxPoint x="129.5" y="290" as="targetPoint" />
          </mxGeometry>
        </mxCell>
        <mxCell id="sve3NwIvAjOAGFKg7BTq-61" value="" style="ellipse;whiteSpace=wrap;html=1;aspect=fixed;strokeColor=#000000;fillColor=#000000;" vertex="1" parent="1">
          <mxGeometry x="125" y="390" width="10" height="10" as="geometry" />
        </mxCell>
        <mxCell id="sve3NwIvAjOAGFKg7BTq-64" value="" style="endArrow=none;dashed=1;html=1;dashPattern=1 3;strokeWidth=2;rounded=0;" edge="1" parent="1" source="sve3NwIvAjOAGFKg7BTq-59" target="sve3NwIvAjOAGFKg7BTq-63">
          <mxGeometry width="50" height="50" relative="1" as="geometry">
            <mxPoint x="75" y="345" as="sourcePoint" />
            <mxPoint x="320" y="344.5" as="targetPoint" />
          </mxGeometry>
        </mxCell>
        <mxCell id="sve3NwIvAjOAGFKg7BTq-63" value="" style="ellipse;whiteSpace=wrap;html=1;aspect=fixed;strokeColor=#000000;fillColor=#000000;" vertex="1" parent="1">
          <mxGeometry x="180" y="340" width="10" height="10" as="geometry" />
        </mxCell>
        <mxCell id="sve3NwIvAjOAGFKg7BTq-66" value="" style="endArrow=none;dashed=1;html=1;dashPattern=1 3;strokeWidth=2;rounded=0;" edge="1" parent="1">
          <mxGeometry width="50" height="50" relative="1" as="geometry">
            <mxPoint x="40" y="290" as="sourcePoint" />
            <mxPoint x="250" y="290" as="targetPoint" />
          </mxGeometry>
        </mxCell>
        <mxCell id="sve3NwIvAjOAGFKg7BTq-65" value="" style="ellipse;whiteSpace=wrap;html=1;aspect=fixed;strokeColor=#000000;fillColor=#000000;" vertex="1" parent="1">
          <mxGeometry x="245" y="290" width="10" height="10" as="geometry" />
        </mxCell>
        <mxCell id="sve3NwIvAjOAGFKg7BTq-68" value="" style="endArrow=none;dashed=1;html=1;dashPattern=1 3;strokeWidth=2;rounded=0;" edge="1" parent="1" source="sve3NwIvAjOAGFKg7BTq-63" target="sve3NwIvAjOAGFKg7BTq-67">
          <mxGeometry width="50" height="50" relative="1" as="geometry">
            <mxPoint x="190" y="345" as="sourcePoint" />
            <mxPoint x="320" y="344.5" as="targetPoint" />
          </mxGeometry>
        </mxCell>
        <mxCell id="sve3NwIvAjOAGFKg7BTq-67" value="" style="ellipse;whiteSpace=wrap;html=1;aspect=fixed;strokeColor=#000000;fillColor=#000000;" vertex="1" parent="1">
          <mxGeometry x="315" y="340" width="10" height="10" as="geometry" />
        </mxCell>
        <mxCell id="sve3NwIvAjOAGFKg7BTq-69" value="" style="endArrow=none;html=1;rounded=0;exitX=1;exitY=1;exitDx=0;exitDy=0;entryX=0;entryY=0.5;entryDx=0;entryDy=0;" edge="1" parent="1" source="sve3NwIvAjOAGFKg7BTq-59" target="sve3NwIvAjOAGFKg7BTq-61">
          <mxGeometry width="50" height="50" relative="1" as="geometry">
            <mxPoint x="170" y="480" as="sourcePoint" />
            <mxPoint x="220" y="430" as="targetPoint" />
          </mxGeometry>
        </mxCell>
        <mxCell id="sve3NwIvAjOAGFKg7BTq-70" value="" style="endArrow=none;html=1;rounded=0;exitX=0.5;exitY=1;exitDx=0;exitDy=0;entryX=1;entryY=0.5;entryDx=0;entryDy=0;" edge="1" parent="1" source="sve3NwIvAjOAGFKg7BTq-63" target="sve3NwIvAjOAGFKg7BTq-61">
          <mxGeometry width="50" height="50" relative="1" as="geometry">
            <mxPoint x="84" y="359" as="sourcePoint" />
            <mxPoint x="140" y="400" as="targetPoint" />
          </mxGeometry>
        </mxCell>
        <mxCell id="sve3NwIvAjOAGFKg7BTq-71" value="" style="endArrow=none;html=1;rounded=0;exitX=0;exitY=1;exitDx=0;exitDy=0;entryX=1;entryY=0.5;entryDx=0;entryDy=0;" edge="1" parent="1" source="sve3NwIvAjOAGFKg7BTq-65" target="sve3NwIvAjOAGFKg7BTq-63">
          <mxGeometry width="50" height="50" relative="1" as="geometry">
            <mxPoint x="274" y="330" as="sourcePoint" />
            <mxPoint x="224" y="375" as="targetPoint" />
          </mxGeometry>
        </mxCell>
        <mxCell id="sve3NwIvAjOAGFKg7BTq-72" value="" style="endArrow=none;html=1;rounded=0;exitX=0;exitY=0.5;exitDx=0;exitDy=0;entryX=1;entryY=1;entryDx=0;entryDy=0;" edge="1" parent="1" source="sve3NwIvAjOAGFKg7BTq-67" target="sve3NwIvAjOAGFKg7BTq-65">
          <mxGeometry width="50" height="50" relative="1" as="geometry">
            <mxPoint x="256" y="309" as="sourcePoint" />
            <mxPoint x="200" y="355" as="targetPoint" />
          </mxGeometry>
        </mxCell>
        <mxCell id="sve3NwIvAjOAGFKg7BTq-73" value="6" style="text;strokeColor=none;align=center;fillColor=none;html=1;verticalAlign=middle;whiteSpace=wrap;rounded=0;" vertex="1" parent="1">
          <mxGeometry x="465" y="400" width="60" height="30" as="geometry" />
        </mxCell>
        <mxCell id="sve3NwIvAjOAGFKg7BTq-74" value="18" style="text;strokeColor=none;align=center;fillColor=none;html=1;verticalAlign=middle;whiteSpace=wrap;rounded=0;" vertex="1" parent="1">
          <mxGeometry x="465" y="340" width="60" height="30" as="geometry" />
        </mxCell>
        <mxCell id="sve3NwIvAjOAGFKg7BTq-75" value="&lt;font style=&quot;font-size: 21px;&quot;&gt;&lt;b&gt;Flight Operations Distribution&lt;br&gt;&lt;/b&gt;&lt;/font&gt;" style="text;strokeColor=none;align=center;fillColor=none;html=1;verticalAlign=middle;whiteSpace=wrap;rounded=0;" vertex="1" parent="1">
          <mxGeometry x="410" y="240" width="320.5" height="30" as="geometry" />
        </mxCell>
        <mxCell id="sve3NwIvAjOAGFKg7BTq-76" value="" style="whiteSpace=wrap;html=1;aspect=fixed;fillColor=#3333FF;" vertex="1" parent="1">
          <mxGeometry x="529.5" y="500" width="20" height="20" as="geometry" />
        </mxCell>
        <mxCell id="sve3NwIvAjOAGFKg7BTq-77" value="" style="whiteSpace=wrap;html=1;aspect=fixed;strokeColor=#32A345;fillColor=#32A345;" vertex="1" parent="1">
          <mxGeometry x="669.5" y="500" width="20" height="20" as="geometry" />
        </mxCell>
        <mxCell id="sve3NwIvAjOAGFKg7BTq-78" value="Active Gates" style="text;strokeColor=none;align=center;fillColor=none;html=1;verticalAlign=middle;whiteSpace=wrap;rounded=0;" vertex="1" parent="1">
          <mxGeometry x="554.63" y="495" width="89.75" height="30" as="geometry" />
        </mxCell>
        <mxCell id="sve3NwIvAjOAGFKg7BTq-79" value="Active Flights" style="text;strokeColor=none;align=center;fillColor=none;html=1;verticalAlign=middle;whiteSpace=wrap;rounded=0;" vertex="1" parent="1">
          <mxGeometry x="689.5" y="495" width="89.75" height="30" as="geometry" />
        </mxCell>
        <mxCell id="sve3NwIvAjOAGFKg7BTq-80" value="12" style="text;strokeColor=none;align=center;fillColor=none;html=1;verticalAlign=middle;whiteSpace=wrap;rounded=0;" vertex="1" parent="1">
          <mxGeometry x="465" y="370" width="60" height="30" as="geometry" />
        </mxCell>
        <mxCell id="sve3NwIvAjOAGFKg7BTq-81" value="24" style="text;strokeColor=none;align=center;fillColor=none;html=1;verticalAlign=middle;whiteSpace=wrap;rounded=0;" vertex="1" parent="1">
          <mxGeometry x="465" y="310" width="60" height="30" as="geometry" />
        </mxCell>
        <mxCell id="sve3NwIvAjOAGFKg7BTq-82" value="30" style="text;strokeColor=none;align=center;fillColor=none;html=1;verticalAlign=middle;whiteSpace=wrap;rounded=0;" vertex="1" parent="1">
          <mxGeometry x="465" y="280" width="60" height="30" as="geometry" />
        </mxCell>
        <mxCell id="sve3NwIvAjOAGFKg7BTq-86" value="" style="rounded=0;whiteSpace=wrap;html=1;fillColor=#3333FF;" vertex="1" parent="1">
          <mxGeometry x="520" y="290" width="20" height="150" as="geometry" />
        </mxCell>
        <mxCell id="sve3NwIvAjOAGFKg7BTq-87" value="" style="rounded=0;whiteSpace=wrap;html=1;strokeColor=#000000;fillColor=#32A345;" vertex="1" parent="1">
          <mxGeometry x="549.5" y="350" width="20" height="90" as="geometry" />
        </mxCell>
        <mxCell id="sve3NwIvAjOAGFKg7BTq-89" value="" style="rounded=0;whiteSpace=wrap;html=1;fillColor=#3333FF;" vertex="1" parent="1">
          <mxGeometry x="580" y="320" width="20" height="120" as="geometry" />
        </mxCell>
        <mxCell id="sve3NwIvAjOAGFKg7BTq-90" value="" style="rounded=0;whiteSpace=wrap;html=1;fillColor=#32A345;" vertex="1" parent="1">
          <mxGeometry x="609.5" y="300" width="20" height="140" as="geometry" />
        </mxCell>
        <mxCell id="sve3NwIvAjOAGFKg7BTq-98" value="" style="rounded=0;whiteSpace=wrap;html=1;fillColor=#32A345;" vertex="1" parent="1">
          <mxGeometry x="669.5" y="300" width="20" height="140" as="geometry" />
        </mxCell>
        <mxCell id="sve3NwIvAjOAGFKg7BTq-99" value="" style="rounded=0;whiteSpace=wrap;html=1;fillColor=#3333FF;" vertex="1" parent="1">
          <mxGeometry x="644.38" y="320" width="20" height="120" as="geometry" />
        </mxCell>
        <mxCell id="sve3NwIvAjOAGFKg7BTq-100" value="" style="rounded=0;whiteSpace=wrap;html=1;fillColor=#32A345;" vertex="1" parent="1">
          <mxGeometry x="730.5" y="300" width="20" height="140" as="geometry" />
        </mxCell>
        <mxCell id="sve3NwIvAjOAGFKg7BTq-102" value="" style="rounded=0;whiteSpace=wrap;html=1;fillColor=#3333FF;" vertex="1" parent="1">
          <mxGeometry x="702" y="320" width="20" height="120" as="geometry" />
        </mxCell>
        <mxCell id="sve3NwIvAjOAGFKg7BTq-104" value="&lt;font style=&quot;font-size: 21px;&quot;&gt;&lt;b&gt;Recent Activities&lt;br&gt;&lt;/b&gt;&lt;/font&gt;" style="text;strokeColor=none;align=center;fillColor=none;html=1;verticalAlign=middle;whiteSpace=wrap;rounded=0;" vertex="1" parent="1">
          <mxGeometry x="24.75" y="570" width="320.5" height="30" as="geometry" />
        </mxCell>
        <mxCell id="sve3NwIvAjOAGFKg7BTq-105" value="&lt;font style=&quot;font-size: 21px;&quot;&gt;&lt;b&gt;Performance Issues&lt;br&gt;&lt;/b&gt;&lt;/font&gt;" style="text;strokeColor=none;align=center;fillColor=none;html=1;verticalAlign=middle;whiteSpace=wrap;rounded=0;" vertex="1" parent="1">
          <mxGeometry x="449.5" y="590" width="320.5" height="30" as="geometry" />
        </mxCell>
        <mxCell id="sve3NwIvAjOAGFKg7BTq-106" value="&lt;div align=&quot;left&quot;&gt;Gate Assignment Changed&amp;nbsp;&amp;nbsp;&amp;nbsp;&amp;nbsp;&amp;nbsp;&amp;nbsp;&amp;nbsp;&amp;nbsp;&amp;nbsp;&amp;nbsp;&amp;nbsp;&amp;nbsp;&amp;nbsp;&amp;nbsp;&amp;nbsp;&amp;nbsp;&amp;nbsp;&amp;nbsp;&amp;nbsp;&amp;nbsp;&amp;nbsp;&amp;nbsp;&amp;nbsp;&amp;nbsp;&amp;nbsp;&amp;nbsp;&amp;nbsp;&amp;nbsp;&amp;nbsp;&amp;nbsp;&amp;nbsp;&amp;nbsp;&amp;nbsp;&amp;nbsp;&amp;nbsp;&amp;nbsp;&amp;nbsp;&amp;nbsp;&amp;nbsp;&amp;nbsp;&amp;nbsp;&amp;nbsp;&amp;nbsp;&amp;nbsp;&amp;nbsp;&amp;nbsp;&amp;nbsp;&amp;nbsp;&amp;nbsp;&amp;nbsp;&amp;nbsp;&amp;nbsp;&amp;nbsp; 1010 &lt;br&gt;&lt;/div&gt;&lt;div align=&quot;left&quot;&gt;Flight AA123 Changed from gate A1 to A2&lt;br&gt;&lt;/div&gt;" style="rounded=0;whiteSpace=wrap;html=1;strokeWidth=0;align=left;" vertex="1" parent="1">
          <mxGeometry x="20" y="630" width="390" height="40" as="geometry" />
        </mxCell>
        <mxCell id="sve3NwIvAjOAGFKg7BTq-107" value="&lt;div align=&quot;left&quot;&gt;&lt;br&gt;&lt;/div&gt;&lt;div align=&quot;left&quot;&gt;Gate Assignment Changed&amp;nbsp;&amp;nbsp;&amp;nbsp;&amp;nbsp;&amp;nbsp;&amp;nbsp;&amp;nbsp;&amp;nbsp;&amp;nbsp;&amp;nbsp;&amp;nbsp;&amp;nbsp;&amp;nbsp;&amp;nbsp;&amp;nbsp;&amp;nbsp;&amp;nbsp;&amp;nbsp;&amp;nbsp;&amp;nbsp;&amp;nbsp;&amp;nbsp;&amp;nbsp;&amp;nbsp;&amp;nbsp;&amp;nbsp;&amp;nbsp;&amp;nbsp;&amp;nbsp;&amp;nbsp;&amp;nbsp;&amp;nbsp;&amp;nbsp;&amp;nbsp;&amp;nbsp;&amp;nbsp;&amp;nbsp;&amp;nbsp;&amp;nbsp;&amp;nbsp;&amp;nbsp;&amp;nbsp;&amp;nbsp;&amp;nbsp;&amp;nbsp;&amp;nbsp;&amp;nbsp;&amp;nbsp;&amp;nbsp;&amp;nbsp;&amp;nbsp;&amp;nbsp;&amp;nbsp; 1030&lt;br&gt;&lt;/div&gt;&lt;div align=&quot;left&quot;&gt;&amp;nbsp;Flight AA123 Changed from gate A1 to A2&lt;br&gt;&lt;/div&gt;&lt;div align=&quot;left&quot;&gt;&lt;br&gt;&lt;/div&gt;" style="rounded=0;whiteSpace=wrap;html=1;strokeWidth=0;align=left;" vertex="1" parent="1">
          <mxGeometry x="20" y="679" width="390" height="40" as="geometry" />
        </mxCell>
        <mxCell id="sve3NwIvAjOAGFKg7BTq-108" value="&lt;div align=&quot;left&quot;&gt;&lt;br&gt;&lt;/div&gt;&lt;div align=&quot;left&quot;&gt;Gate Assignment Changed&amp;nbsp;&amp;nbsp;&amp;nbsp;&amp;nbsp;&amp;nbsp;&amp;nbsp;&amp;nbsp;&amp;nbsp;&amp;nbsp;&amp;nbsp;&amp;nbsp;&amp;nbsp;&amp;nbsp;&amp;nbsp;&amp;nbsp;&amp;nbsp;&amp;nbsp;&amp;nbsp;&amp;nbsp;&amp;nbsp;&amp;nbsp;&amp;nbsp;&amp;nbsp;&amp;nbsp;&amp;nbsp;&amp;nbsp;&amp;nbsp;&amp;nbsp;&amp;nbsp;&amp;nbsp;&amp;nbsp;&amp;nbsp;&amp;nbsp;&amp;nbsp;&amp;nbsp;&amp;nbsp;&amp;nbsp;&amp;nbsp;&amp;nbsp;&amp;nbsp;&amp;nbsp;&amp;nbsp;&amp;nbsp;&amp;nbsp;&amp;nbsp;&amp;nbsp;&amp;nbsp;&amp;nbsp;&amp;nbsp;&amp;nbsp;&amp;nbsp;&amp;nbsp;&amp;nbsp; 1511 &lt;br&gt;&lt;/div&gt;&lt;div align=&quot;left&quot;&gt;Flight AA123 Changed from gate A1 to A2&lt;br&gt;&lt;/div&gt;&lt;div align=&quot;left&quot;&gt;&lt;br&gt;&lt;br&gt;&lt;/div&gt;" style="rounded=0;whiteSpace=wrap;html=1;strokeWidth=0;align=left;" vertex="1" parent="1">
          <mxGeometry x="20" y="730" width="390" height="40" as="geometry" />
        </mxCell>
        <mxCell id="sve3NwIvAjOAGFKg7BTq-109" value="&lt;div align=&quot;left&quot;&gt;&lt;span style=&quot;background-color: light-dark(#ffffff, var(--ge-dark-color, #121212)); color: rgb(255, 0, 0);&quot;&gt;&lt;span style=&quot;background-color: light-dark(#ffffff, var(--ge-dark-color, #121212));&quot;&gt;&lt;span style=&quot;background-color: light-dark(#ffffff, var(--ge-dark-color, #121212));&quot;&gt;&lt;span style=&quot;background-color: light-dark(#ffffff, var(--ge-dark-color, #121212));&quot;&gt;&lt;br&gt;&lt;/span&gt;&lt;/span&gt;&lt;/span&gt;&lt;/span&gt;&lt;/div&gt;&lt;div align=&quot;left&quot;&gt;&lt;span style=&quot;background-color: light-dark(#ffffff, var(--ge-dark-color, #121212));&quot;&gt;&lt;span style=&quot;background-color: light-dark(#ffffff, var(--ge-dark-color, #121212));&quot;&gt;&lt;span style=&quot;background-color: light-dark(#ffffff, var(--ge-dark-color, #121212));&quot;&gt;&lt;span style=&quot;background-color: light-dark(#ffffff, var(--ge-dark-color, #121212));&quot;&gt;&lt;br&gt;&lt;/span&gt;&lt;/span&gt;&lt;/span&gt;&lt;/span&gt;&lt;/div&gt;&lt;div align=&quot;left&quot;&gt;&lt;span style=&quot;background-color: light-dark(#ffffff, var(--ge-dark-color, #121212));&quot;&gt;&lt;span style=&quot;background-color: light-dark(#ffffff, var(--ge-dark-color, #121212));&quot;&gt;&lt;span style=&quot;background-color: light-dark(#ffffff, var(--ge-dark-color, #121212));&quot;&gt;&lt;span style=&quot;background-color: light-dark(#ffffff, var(--ge-dark-color, #121212));&quot;&gt;&lt;br&gt;&lt;/span&gt;&lt;/span&gt;&lt;/span&gt;&lt;/span&gt;&lt;/div&gt;&lt;div align=&quot;left&quot;&gt;&lt;span style=&quot;background-color: light-dark(#ffffff, var(--ge-dark-color, #121212));&quot;&gt;Gate A3 Maintenance&amp;nbsp;&amp;nbsp;&amp;nbsp;&amp;nbsp;&amp;nbsp;&amp;nbsp;&amp;nbsp;&amp;nbsp;&amp;nbsp;&amp;nbsp;&amp;nbsp;&amp;nbsp;&amp;nbsp;&amp;nbsp;&amp;nbsp;&amp;nbsp;&amp;nbsp;&amp;nbsp;&amp;nbsp;&amp;nbsp;&amp;nbsp;&amp;nbsp;&amp;nbsp;&amp;nbsp;&amp;nbsp;&amp;nbsp;&amp;nbsp;&amp;nbsp;&amp;nbsp;&amp;nbsp;&amp;nbsp;&amp;nbsp;&amp;nbsp;&amp;nbsp;&amp;nbsp;&amp;nbsp;&amp;nbsp;&amp;nbsp;&amp;nbsp;&amp;nbsp;&amp;nbsp;&amp;nbsp;&amp;nbsp;&amp;nbsp;&amp;nbsp;&amp;nbsp;&amp;nbsp;&amp;nbsp;&amp;nbsp;&amp;nbsp;&amp;nbsp;&amp;nbsp;&amp;nbsp;&amp;nbsp;&amp;nbsp;&amp;nbsp;&amp;nbsp;&amp;nbsp;&amp;nbsp;&amp;nbsp;&amp;nbsp;&amp;nbsp;&amp;nbsp;&amp;nbsp; Critical&lt;/span&gt;&lt;/div&gt;&lt;div align=&quot;left&quot;&gt;&lt;span style=&quot;background-color: light-dark(#ffffff, var(--ge-dark-color, #121212));&quot;&gt;&lt;span style=&quot;background-color: light-dark(#ffffff, var(--ge-dark-color, #121212));&quot;&gt;&lt;span style=&quot;background-color: light-dark(#ffffff, var(--ge-dark-color, #121212));&quot;&gt;&lt;span style=&quot;background-color: light-dark(#ffffff, var(--ge-dark-color, #121212));&quot;&gt;Scheduled maintenance required due in 2 hours&lt;br&gt;&lt;/span&gt;&lt;/span&gt;&lt;/span&gt;&lt;/span&gt;&lt;/div&gt;&lt;div align=&quot;left&quot;&gt;&lt;span style=&quot;background-color: light-dark(#ffffff, var(--ge-dark-color, #121212));&quot;&gt;&lt;span style=&quot;background-color: light-dark(#ffffff, var(--ge-dark-color, #121212));&quot;&gt;&lt;span style=&quot;background-color: light-dark(#ffffff, var(--ge-dark-color, #121212));&quot;&gt;&lt;span style=&quot;background-color: light-dark(#ffffff, var(--ge-dark-color, #121212));&quot;&gt;&lt;br&gt;&lt;/span&gt;&lt;/span&gt;&lt;/span&gt;&lt;/span&gt;&lt;/div&gt;&lt;div align=&quot;left&quot;&gt;&lt;span style=&quot;background-color: light-dark(#ffffff, var(--ge-dark-color, #121212));&quot;&gt;&lt;span style=&quot;background-color: light-dark(#ffffff, var(--ge-dark-color, #121212));&quot;&gt;&lt;span style=&quot;background-color: light-dark(#ffffff, var(--ge-dark-color, #121212));&quot;&gt;&lt;span style=&quot;background-color: light-dark(#ffffff, var(--ge-dark-color, #121212));&quot;&gt;&lt;br&gt;&lt;br&gt;&lt;/span&gt;&lt;/span&gt;&lt;/span&gt;&lt;/span&gt;&lt;/div&gt;" style="rounded=0;whiteSpace=wrap;html=1;strokeWidth=0;align=left;" vertex="1" parent="1">
          <mxGeometry x="505" y="630" width="390" height="40" as="geometry" />
        </mxCell>
        <mxCell id="sve3NwIvAjOAGFKg7BTq-110" value="&lt;div align=&quot;left&quot;&gt;High Traffic Period&amp;nbsp;&amp;nbsp;&amp;nbsp;&amp;nbsp;&amp;nbsp;&amp;nbsp;&amp;nbsp;&amp;nbsp;&amp;nbsp;&amp;nbsp;&amp;nbsp;&amp;nbsp;&amp;nbsp;&amp;nbsp;&amp;nbsp;&amp;nbsp;&amp;nbsp;&amp;nbsp;&amp;nbsp;&amp;nbsp;&amp;nbsp;&amp;nbsp;&amp;nbsp;&amp;nbsp;&amp;nbsp;&amp;nbsp;&amp;nbsp;&amp;nbsp;&amp;nbsp;&amp;nbsp;&amp;nbsp;&amp;nbsp;&amp;nbsp;&amp;nbsp;&amp;nbsp;&amp;nbsp;&amp;nbsp;&amp;nbsp;&amp;nbsp;&amp;nbsp;&amp;nbsp;&amp;nbsp;&amp;nbsp;&amp;nbsp;&amp;nbsp;&amp;nbsp;&amp;nbsp;&amp;nbsp;&amp;nbsp;&amp;nbsp;&amp;nbsp;&amp;nbsp;&amp;nbsp;&amp;nbsp;&amp;nbsp;&amp;nbsp;&amp;nbsp;&amp;nbsp;&amp;nbsp;&amp;nbsp;&amp;nbsp;&amp;nbsp;&amp;nbsp;&amp;nbsp;&amp;nbsp;&amp;nbsp;&amp;nbsp;&amp;nbsp;&amp;nbsp;&amp;nbsp; Warning&lt;/div&gt;&lt;div align=&quot;left&quot;&gt;Terminal 1 approaching capacity (85%)&lt;br&gt;&lt;/div&gt;" style="rounded=0;whiteSpace=wrap;html=1;strokeWidth=0;align=left;" vertex="1" parent="1">
          <mxGeometry x="506" y="680" width="390" height="40" as="geometry" />
        </mxCell>
        <mxCell id="sve3NwIvAjOAGFKg7BTq-111" value="" style="sketch=0;pointerEvents=1;shadow=0;dashed=0;html=1;strokeColor=none;fillColor=#505050;labelPosition=center;verticalLabelPosition=bottom;verticalAlign=top;outlineConnect=0;align=center;shape=mxgraph.office.concepts.calendar;" vertex="1" parent="1">
          <mxGeometry x="580" y="13" width="40.5" height="30" as="geometry" />
        </mxCell>
        <mxCell id="sve3NwIvAjOAGFKg7BTq-112" value="" style="sketch=0;aspect=fixed;pointerEvents=1;shadow=0;dashed=0;html=1;strokeColor=default;labelPosition=center;verticalLabelPosition=bottom;verticalAlign=top;align=center;fillColor=none;shape=mxgraph.mscae.enterprise.filter;strokeWidth=2;" vertex="1" parent="1">
          <mxGeometry x="872.78" y="600" width="22.22" height="20" as="geometry" />
        </mxCell>
        <mxCell id="sve3NwIvAjOAGFKg7BTq-113" value="" style="sketch=0;aspect=fixed;pointerEvents=1;shadow=0;dashed=0;html=1;strokeColor=default;labelPosition=center;verticalLabelPosition=bottom;verticalAlign=top;align=center;fillColor=none;shape=mxgraph.mscae.enterprise.filter;strokeWidth=2;" vertex="1" parent="1">
          <mxGeometry x="387.78" y="580" width="22.22" height="20" as="geometry" />
        </mxCell>
        <mxCell id="sve3NwIvAjOAGFKg7BTq-114" value="&lt;b&gt;Description&lt;/b&gt;" style="text;strokeColor=none;align=center;fillColor=none;html=1;verticalAlign=middle;whiteSpace=wrap;rounded=0;" vertex="1" parent="1">
          <mxGeometry x="5" y="600" width="130" height="30" as="geometry" />
        </mxCell>
        <mxCell id="sve3NwIvAjOAGFKg7BTq-115" value="&lt;b&gt;Time&lt;/b&gt;" style="text;strokeColor=none;align=center;fillColor=none;html=1;verticalAlign=middle;whiteSpace=wrap;rounded=0;" vertex="1" parent="1">
          <mxGeometry x="280" y="600" width="130" height="30" as="geometry" />
        </mxCell>
      </root>
    </mxGraphModel>
  </diagram>
</mxfile>
